<svg xmlns="http://www.w3.org/2000/svg" viewBox="0 0 1600 900" width="1600" height="900" role="img" aria-label="i3wm Gruvbox 桌面截图示意">
  <defs>
    <linearGradient id="wall" x1="0" y1="0" x2="1" y2="1">
      <stop offset="0%" stop-color="#282828"/>
      <stop offset="100%" stop-color="#3C3836"/>
    </linearGradient>
    <radialGradient id="glow" cx="78%" cy="18%" r="62%">
      <stop offset="0%" stop-color="#83A598" stop-opacity="0.38"/>
      <stop offset="100%" stop-color="#83A598" stop-opacity="0"/>
    </radialGradient>
  </defs>

  <rect width="1600" height="900" fill="url(#wall)"/>
  <rect width="1600" height="900" fill="url(#glow)"/>
  <circle cx="1240" cy="220" r="150" fill="none" stroke="#83A598" stroke-opacity="0.25" stroke-width="2"/>
  <circle cx="1240" cy="220" r="210" fill="none" stroke="#83A598" stroke-opacity="0.14" stroke-width="2"/>

  <rect x="0" y="0" width="1600" height="40" fill="#1D2021" opacity="0.92"/>
  <circle cx="30" cy="20" r="6" fill="#83A598"/>
  <circle cx="52" cy="20" r="6" fill="#EBDBB2" opacity="0.45"/>
  <circle cx="74" cy="20" r="6" fill="#EBDBB2" opacity="0.25"/>
  <text x="100" y="25" font-family="monospace" font-size="14" fill="#EBDBB2" opacity="0.75">i3wm · Gruvbox</text>
  <text x="1490" y="25" font-family="monospace" font-size="14" fill="#EBDBB2" opacity="0.75">09:41</text>

  
    <g>
      <rect x="80" y="110" width="620" height="360" rx="12" fill="#32302F" opacity="0.94"/>
      <rect x="80" y="110" width="620" height="360" rx="12" fill="none" stroke="#83A598" stroke-opacity="0.35"/>
      <rect x="80" y="110" width="620" height="28" rx="12" fill="#1D2021" opacity="0.9"/>
      <circle cx="98" cy="124" r="5" fill="#83A598" opacity="0.9"/>
      <circle cx="114" cy="124" r="5" fill="#EBDBB2" opacity="0.4"/>
      <circle cx="130" cy="124" r="5" fill="#EBDBB2" opacity="0.25"/>
      <text x="148" y="129" font-family="monospace" font-size="13" fill="#EBDBB2" opacity="0.6">fastfetch</text>
      <rect x="96" y="154" width="262" height="8" rx="4" fill="#83A598" opacity="0.75"/>
      <rect x="96" y="176" width="463" height="8" rx="4" fill="#EBDBB2" opacity="0.3"/>
      <rect x="96" y="198" width="358" height="8" rx="4" fill="#EBDBB2" opacity="0.3"/>
      <rect x="96" y="220" width="408" height="8" rx="4" fill="#EBDBB2" opacity="0.3"/>
      <rect x="96" y="242" width="410" height="8" rx="4" fill="#83A598" opacity="0.75"/>
      <rect x="96" y="264" width="385" height="8" rx="4" fill="#EBDBB2" opacity="0.3"/>
      <rect x="96" y="286" width="214" height="8" rx="4" fill="#EBDBB2" opacity="0.3"/>
      <rect x="96" y="308" width="407" height="8" rx="4" fill="#EBDBB2" opacity="0.3"/>
      <rect x="96" y="330" width="397" height="8" rx="4" fill="#83A598" opacity="0.75"/>
      <rect x="96" y="352" width="201" height="8" rx="4" fill="#EBDBB2" opacity="0.3"/>
      <rect x="96" y="374" width="197" height="8" rx="4" fill="#EBDBB2" opacity="0.3"/>
      <rect x="96" y="396" width="417" height="8" rx="4" fill="#EBDBB2" opacity="0.3"/>
      <rect x="96" y="418" width="351" height="8" rx="4" fill="#83A598" opacity="0.75"/>
      <rect x="96" y="440" width="145" height="8" rx="4" fill="#EBDBB2" opacity="0.3"/>
    </g>
  
    <g>
      <rect x="230" y="340" width="640" height="400" rx="12" fill="#32302F" opacity="0.94"/>
      <rect x="230" y="340" width="640" height="400" rx="12" fill="none" stroke="#83A598" stroke-opacity="0.35"/>
      <rect x="230" y="340" width="640" height="28" rx="12" fill="#1D2021" opacity="0.9"/>
      <circle cx="248" cy="354" r="5" fill="#83A598" opacity="0.9"/>
      <circle cx="264" cy="354" r="5" fill="#EBDBB2" opacity="0.4"/>
      <circle cx="280" cy="354" r="5" fill="#EBDBB2" opacity="0.25"/>
      <text x="298" y="359" font-family="monospace" font-size="13" fill="#EBDBB2" opacity="0.6">nvim ~/.config</text>
      <rect x="246" y="384" width="384" height="8" rx="4" fill="#83A598" opacity="0.75"/>
      <rect x="246" y="406" width="232" height="8" rx="4" fill="#EBDBB2" opacity="0.3"/>
      <rect x="246" y="428" width="203" height="8" rx="4" fill="#EBDBB2" opacity="0.3"/>
      <rect x="246" y="450" width="272" height="8" rx="4" fill="#EBDBB2" opacity="0.3"/>
      <rect x="246" y="472" width="181" height="8" rx="4" fill="#83A598" opacity="0.75"/>
      <rect x="246" y="494" width="483" height="8" rx="4" fill="#EBDBB2" opacity="0.3"/>
      <rect x="246" y="516" width="339" height="8" rx="4" fill="#EBDBB2" opacity="0.3"/>
      <rect x="246" y="538" width="233" height="8" rx="4" fill="#EBDBB2" opacity="0.3"/>
      <rect x="246" y="560" width="369" height="8" rx="4" fill="#83A598" opacity="0.75"/>
      <rect x="246" y="582" width="248" height="8" rx="4" fill="#EBDBB2" opacity="0.3"/>
      <rect x="246" y="604" width="399" height="8" rx="4" fill="#EBDBB2" opacity="0.3"/>
      <rect x="246" y="626" width="378" height="8" rx="4" fill="#EBDBB2" opacity="0.3"/>
      <rect x="246" y="648" width="367" height="8" rx="4" fill="#83A598" opacity="0.75"/>
      <rect x="246" y="670" width="154" height="8" rx="4" fill="#EBDBB2" opacity="0.3"/>
      <rect x="246" y="692" width="195" height="8" rx="4" fill="#EBDBB2" opacity="0.3"/>
      <rect x="246" y="714" width="439" height="8" rx="4" fill="#EBDBB2" opacity="0.3"/>
    </g>
  
    <g>
      <rect x="1080" y="110" width="440" height="260" rx="12" fill="#32302F" opacity="0.94"/>
      <rect x="1080" y="110" width="440" height="260" rx="12" fill="none" stroke="#83A598" stroke-opacity="0.35"/>
      <rect x="1080" y="110" width="440" height="28" rx="12" fill="#1D2021" opacity="0.9"/>
      <circle cx="1098" cy="124" r="5" fill="#83A598" opacity="0.9"/>
      <circle cx="1114" cy="124" r="5" fill="#EBDBB2" opacity="0.4"/>
      <circle cx="1130" cy="124" r="5" fill="#EBDBB2" opacity="0.25"/>
      <text x="1148" y="129" font-family="monospace" font-size="13" fill="#EBDBB2" opacity="0.6">btop</text>
      <rect x="1096" y="154" width="250" height="8" rx="4" fill="#83A598" opacity="0.75"/>
      <rect x="1096" y="176" width="226" height="8" rx="4" fill="#EBDBB2" opacity="0.3"/>
      <rect x="1096" y="198" width="310" height="8" rx="4" fill="#EBDBB2" opacity="0.3"/>
      <rect x="1096" y="220" width="321" height="8" rx="4" fill="#EBDBB2" opacity="0.3"/>
      <rect x="1096" y="242" width="199" height="8" rx="4" fill="#83A598" opacity="0.75"/>
      <rect x="1096" y="264" width="104" height="8" rx="4" fill="#EBDBB2" opacity="0.3"/>
      <rect x="1096" y="286" width="215" height="8" rx="4" fill="#EBDBB2" opacity="0.3"/>
      <rect x="1096" y="308" width="206" height="8" rx="4" fill="#EBDBB2" opacity="0.3"/>
      <rect x="1096" y="330" width="111" height="8" rx="4" fill="#83A598" opacity="0.75"/>
    </g>

  <g><rect x="1120" y="686" width="9" height="54" rx="4" fill="#83A598" opacity="0.26197425520513207"/><rect x="1136" y="708" width="9" height="32" rx="4" fill="#83A598" opacity="0.4571414681850001"/><rect x="1152" y="671" width="9" height="69" rx="4" fill="#83A598" opacity="0.5433808370726183"/><rect x="1168" y="656" width="9" height="84" rx="4" fill="#83A598" opacity="0.5403164312010631"/><rect x="1184" y="706" width="9" height="34" rx="4" fill="#83A598" opacity="0.3489344004774466"/><rect x="1200" y="648" width="9" height="92" rx="4" fill="#83A598" opacity="0.5976341915084049"/><rect x="1216" y="644" width="9" height="96" rx="4" fill="#83A598" opacity="0.3231262603076175"/><rect x="1232" y="701" width="9" height="39" rx="4" fill="#83A598" opacity="0.5450752073666081"/><rect x="1248" y="688" width="9" height="52" rx="4" fill="#83A598" opacity="0.3759067921200767"/><rect x="1264" y="698" width="9" height="42" rx="4" fill="#83A598" opacity="0.25299806508701295"/><rect x="1280" y="635" width="9" height="105" rx="4" fill="#83A598" opacity="0.7208018872188404"/><rect x="1296" y="697" width="9" height="43" rx="4" fill="#83A598" opacity="0.7065703872358426"/><rect x="1312" y="640" width="9" height="100" rx="4" fill="#83A598" opacity="0.45648643898312"/><rect x="1328" y="638" width="9" height="102" rx="4" fill="#83A598" opacity="0.5104380220873281"/><rect x="1344" y="681" width="9" height="59" rx="4" fill="#83A598" opacity="0.32462736044544727"/><rect x="1360" y="679" width="9" height="61" rx="4" fill="#83A598" opacity="0.6829450143268332"/><rect x="1376" y="645" width="9" height="95" rx="4" fill="#83A598" opacity="0.4018086331197992"/><rect x="1392" y="651" width="9" height="89" rx="4" fill="#83A598" opacity="0.3102168570039794"/><rect x="1408" y="705" width="9" height="35" rx="4" fill="#83A598" opacity="0.6083508870797232"/><rect x="1424" y="697" width="9" height="43" rx="4" fill="#83A598" opacity="0.2554195247357711"/><rect x="1440" y="711" width="9" height="29" rx="4" fill="#83A598" opacity="0.5418380122864619"/><rect x="1456" y="669" width="9" height="71" rx="4" fill="#83A598" opacity="0.7435067881597206"/><rect x="1472" y="719" width="9" height="21" rx="4" fill="#83A598" opacity="0.2681633011670783"/><rect x="1488" y="650" width="9" height="90" rx="4" fill="#83A598" opacity="0.26676830963697284"/><rect x="1504" y="650" width="9" height="90" rx="4" fill="#83A598" opacity="0.32790762244258076"/><rect x="1520" y="665" width="9" height="75" rx="4" fill="#83A598" opacity="0.3814910202054307"/><rect x="1536" y="682" width="9" height="58" rx="4" fill="#83A598" opacity="0.34086212620604783"/><rect x="1552" y="648" width="9" height="92" rx="4" fill="#83A598" opacity="0.5910462777828798"/></g>

  <rect x="630" y="826" width="340" height="54" rx="27" fill="#1D2021" opacity="0.88"/>
  <rect x="660" y="838" width="30" height="30" rx="9" fill="#83A598" opacity="0.4"/>
  <rect x="718" y="838" width="30" height="30" rx="9" fill="#83A598" opacity="0.52"/>
  <rect x="776" y="838" width="30" height="30" rx="9" fill="#83A598" opacity="0.64"/>
  <rect x="834" y="838" width="30" height="30" rx="9" fill="#83A598" opacity="0.76"/>
  <rect x="892" y="838" width="30" height="30" rx="9" fill="#83A598" opacity="0.88"/>
</svg>
